# xmcd
#
# Track frame offsets:
#	150
#	18075
#	39822
#	55232
#	69450
#	90525
#	110880
#	127653
#	146568
#	169890
#	189533
#	205765
#	225125
#	241780
#	270740
#	287785
#	312018
#
# Disc length: 4401 seconds
#
# Revision: 1
# Processed by: cddbd v1.5.2PL0 Copyright (c) Steve Scherf et al.
# Submitted via: audiograbber 1.83.01
#
DISCID=dc112f11
DTITLE=Fleetwood Mac - The Chain CD1
DYEAR=1900
DGENRE=Bluesrock
TTITLE0=Paper Doll
TTITLE1=Love shines
TTITLE2=Love in Store
TTITLE3=Goodbye Angel
TTITLE4=Heart of Stone
TTITLE5=Silver Springs
TTITLE6=Oh Diane
TTITLE7=Big Love
TTITLE8=Rhiannon
TTITLE9=Crystal
TTITLE10=The Chain
TTITLE11=Over my Head
TTITLE12=Dreams
TTITLE13=Go your own Way
TTITLE14=Sara
TTITLE15=Hold me
TTITLE16=Gypsy
EXTD=
EXTT0=
EXTT1=
EXTT2=
EXTT3=
EXTT4=
EXTT5=
EXTT6=
EXTT7=
EXTT8=
EXTT9=
EXTT10=
EXTT11=
EXTT12=
EXTT13=
EXTT14=
EXTT15=
EXTT16=
PLAYORDER=
